<?xml version="1.0" standalone="no"?>
<!DOCTYPE svg PUBLIC "-//W3C//DTD SVG 20010904//EN"
 "http://www.w3.org/TR/2001/REC-SVG-20010904/DTD/svg10.dtd">
<svg version="1.0" xmlns="http://www.w3.org/2000/svg"
 width="1472.000000pt" height="832.000000pt" viewBox="0 0 1472.000000 832.000000"
 preserveAspectRatio="xMidYMid meet">

<g transform="translate(0.000000,832.000000) scale(0.100000,-0.100000)"
fill="#000000" stroke="none">
<path d="M0 4160 l0 -4160 7360 0 7360 0 0 4160 0 4160 -7360 0 -7360 0 0
-4160z m3549 1652 c108 -66 230 -139 271 -164 114 -69 460 -278 693 -418 114
-69 207 -128 207 -132 0 -5 0 -398 0 -875 l0 -868 -27 -2 c-16 0 -21 2 -13 7
9 5 9 9 1 15 -7 4 -18 2 -25 -5 -10 -7 -15 -7 -18 0 -5 16 -224 26 -242 11
-12 -11 -26 -7 -73 21 -32 19 -71 42 -88 51 -16 9 -29 21 -27 27 1 7 -2 9 -7
5 -6 -3 -70 30 -143 74 -365 217 -701 411 -712 411 -6 0 -20 -6 -31 -14 -11
-7 -40 -24 -65 -38 -85 -48 -335 -194 -438 -256 -103 -62 -177 -99 -167 -83 3
5 -4 7 -15 4 -11 -3 -17 -10 -13 -16 4 -7 -2 -8 -18 -3 -21 6 -54 12 -113 20
-21 3 -36 26 -17 26 6 0 11 5 11 11 0 5 -10 3 -22 -5 -35 -25 -42 -19 -11 10
29 27 16 23 -29 -8 -17 -11 -29 -15 -33 -8 -3 5 -11 10 -16 10 -6 0 -7 -4 -4
-10 3 -5 0 -7 -8 -4 -8 3 -21 -1 -28 -8 -8 -8 -28 -20 -46 -27 -18 -7 -38 -19
-44 -27 -6 -8 -16 -14 -22 -14 -5 0 1 8 14 19 30 22 382 243 550 344 68 40
207 125 309 187 102 62 203 124 225 136 l41 23 294 -177 c162 -97 309 -187
325 -198 17 -12 75 -48 130 -81 55 -33 161 -97 235 -142 74 -44 138 -81 143
-81 8 0 4 1397 -5 1405 -10 9 -793 495 -950 590 l-187 113 -138 -87 c-76 -48
-181 -113 -233 -145 -52 -31 -156 -95 -230 -141 -74 -47 -148 -92 -165 -101
-16 -9 -81 -50 -143 -91 -62 -40 -138 -87 -169 -105 -56 -32 -56 -32 -87 -13
-17 10 -60 33 -96 52 -90 48 -98 57 -69 76 13 8 78 48 144 89 66 41 201 126
300 188 99 62 304 188 455 280 151 92 309 188 350 213 41 26 79 47 84 47 5 0
97 -53 205 -118z m-209 -897 l0 -655 -51 33 c-28 17 -66 41 -84 52 -127 77
-382 233 -588 359 -133 82 -266 162 -294 177 l-53 28 205 128 c113 70 283 177
378 236 94 60 226 140 292 180 66 39 135 82 154 94 19 13 35 23 37 23 2 0 4
-295 4 -655z m1060 -80 c-7 -8 -17 -15 -23 -15 -6 0 -2 7 9 15 25 19 30 19 14
0z m5377 -32 c33 -22 43 -44 43 -95 0 -50 -19 -82 -60 -103 -53 -28 -120 -11
-154 37 -20 28 -21 90 -2 127 30 57 112 73 173 34z m2474 -9 c32 -15 59 -31
59 -36 0 -16 -62 -118 -71 -118 -6 0 -22 6 -37 14 -72 36 -153 24 -187 -28 -9
-14 -19 -52 -22 -86 l-6 -60 86 0 85 0 4 -67 c2 -38 2 -71 0 -75 -2 -5 -41 -8
-88 -8 l-84 0 0 -310 0 -310 -85 0 -85 0 0 310 0 309 -57 3 -58 3 -3 73 -3 72
58 0 59 0 10 80 c19 137 74 212 186 252 70 25 158 18 239 -18z m-5950 -41 c46
-102 435 -981 456 -1031 4 -10 -15 -12 -87 -10 l-92 3 -73 170 -73 170 -83 8
c-46 4 -147 6 -224 5 l-140 -3 -75 -177 -75 -177 -84 -1 c-81 0 -83 1 -79 23
3 12 107 262 233 555 l228 532 69 0 69 0 30 -67z m5242 56 c52 -23 75 -119 41
-167 -23 -34 -72 -55 -111 -49 -103 17 -142 126 -71 197 24 24 38 30 73 30 24
0 55 -5 68 -11z m-473 -184 l0 -145 100 0 100 0 0 -75 0 -75 -100 0 -100 0 0
-200 0 -200 29 -32 c27 -30 34 -33 105 -36 64 -4 76 -7 76 -21 0 -10 7 -39 16
-65 14 -41 14 -50 3 -57 -20 -13 -175 -11 -220 3 -55 16 -118 73 -145 132 -23
49 -24 61 -24 264 l0 212 -69 0 c-80 0 -81 1 -81 91 l0 59 75 0 75 0 0 145 0
145 80 0 80 0 0 -145z m-6770 105 c8 -5 11 -10 5 -10 -5 0 -17 5 -25 10 -8 5
-10 10 -5 10 6 0 17 -5 25 -10z m4872 -235 c26 -3 79 -22 117 -41 161 -81 246
-249 211 -419 -49 -239 -284 -382 -523 -320 -133 35 -226 109 -280 223 -30 62
-32 75 -32 172 0 92 3 112 26 160 33 70 117 153 194 191 59 29 161 49 215 43
14 -2 46 -6 72 -9z m-1762 -26 c215 -100 295 -364 173 -567 -46 -77 -85 -115
-152 -150 -143 -76 -293 -63 -400 33 l-41 37 0 -196 0 -196 -85 0 -85 0 0 525
0 525 80 0 80 0 1 -27 c1 -16 0 -37 -1 -48 -2 -18 1 -18 27 6 74 69 137 90
258 86 71 -2 101 -8 145 -28z m933 -7 c167 -82 257 -269 213 -440 -46 -181
-175 -301 -343 -318 -102 -11 -191 17 -264 83 l-39 35 0 -196 0 -197 -77 3
-78 3 -3 523 -2 522 80 0 80 0 0 -40 c0 -45 8 -49 36 -19 47 52 136 80 245 76
74 -3 96 -8 152 -35z m2102 23 c75 -22 145 -76 185 -142 l35 -57 3 -288 3
-288 -80 0 -79 0 -4 253 c-3 247 -3 253 -28 297 -62 112 -238 120 -309 15 -46
-68 -50 -96 -51 -337 l0 -228 -80 0 c-70 0 -80 2 -80 18 1 9 -2 182 -5 385
l-6 367 80 0 81 0 0 -37 0 -36 23 20 c24 23 78 52 117 64 42 13 144 10 195 -6z
m-694 -5 l49 0 0 -107 c0 -60 -3 -233 -7 -385 l-6 -278 -79 0 -78 0 0 383 c0
211 3 387 7 391 5 4 21 5 37 2 16 -3 50 -6 77 -6z m1819 -385 l0 -385 -80 0
-80 0 0 385 0 385 80 0 80 0 0 -385z m916 185 c47 -107 97 -223 111 -257 14
-35 28 -63 32 -63 3 0 44 98 90 218 46 119 92 236 102 260 l18 42 85 0 84 0
-38 -97 c-21 -54 -58 -147 -83 -208 -24 -60 -84 -207 -132 -325 -47 -118 -98
-237 -113 -263 -33 -61 -90 -113 -139 -126 -56 -16 -142 -12 -193 8 -50 19
-55 36 -27 104 l15 36 76 -6 c74 -6 76 -5 104 25 16 17 39 58 52 91 22 60 22
60 3 88 -21 30 -82 159 -181 383 -33 74 -76 170 -96 213 l-36 78 91 -3 90 -3
85 -195z m-9156 -418 c0 -4 -13 -13 -30 -19 -38 -14 -39 -8 -2 11 32 18 32 18
32 8z m-230 -142 c-14 -11 -29 -20 -35 -20 -5 0 4 9 20 20 38 25 48 25 15 0z
m1302 -376 c-12 -8 -20 -20 -16 -25 3 -6 0 -9 -8 -7 -8 2 -43 -15 -78 -38 -82
-51 -254 -156 -435 -264 -77 -46 -163 -97 -190 -114 -28 -17 -59 -36 -70 -43
-11 -6 -65 -39 -120 -72 -55 -33 -109 -63 -120 -67 -22 -7 76 53 820 506 61
37 135 83 165 103 53 35 97 53 52 21z"/>
<path d="M2400 3635 c-7 -9 -11 -17 -8 -20 2 -2 12 4 21 15 9 11 13 20 8 20
-5 0 -14 -7 -21 -15z"/>
<path d="M4350 3410 c-8 -5 -10 -10 -5 -10 6 0 17 5 25 10 8 5 11 10 5 10 -5
0 -17 -5 -25 -10z"/>
<path d="M4380 3400 c-8 -5 -12 -12 -9 -15 4 -3 12 1 19 10 14 17 11 19 -10 5z"/>
<path d="M6192 4559 c-6 -14 -40 -94 -76 -177 -36 -84 -66 -155 -66 -157 0 -3
70 -5 155 -5 85 0 155 3 155 7 0 7 -135 314 -150 343 -7 12 -11 10 -18 -11z"/>
<path d="M8988 4336 c-56 -20 -85 -42 -117 -87 -99 -136 -35 -326 130 -384 56
-20 135 -18 184 4 47 21 111 88 132 138 18 45 18 151 0 195 -18 42 -75 101
-120 124 -43 23 -161 28 -209 10z"/>
<path d="M7125 4331 c-46 -20 -101 -79 -121 -127 -17 -40 -18 -143 -3 -195 28
-91 127 -159 231 -159 70 0 117 21 170 77 49 51 69 103 70 179 0 103 -57 188
-155 229 -50 21 -142 19 -192 -4z"/>
<path d="M8066 4335 c-107 -38 -163 -131 -154 -255 10 -143 118 -237 261 -228
109 7 194 83 217 194 26 125 -34 242 -147 289 -44 19 -125 19 -177 0z"/>
</g>
</svg>
